<svg id="Capa_1" data-name="Capa 1" xmlns="http://www.w3.org/2000/svg" xmlns:xlink="http://www.w3.org/1999/xlink" viewBox="0 0 1395.82 740.89"><defs><style>.cls-1{fill:none;}.cls-2{fill:#7b7f80;}.cls-3{fill:#ea252b;}.cls-4{clip-path:url(#clip-path);}.cls-5{fill:url(#Degradado_sin_nombre_4);}.cls-6{clip-path:url(#clip-path-2);}.cls-7{fill:url(#Degradado_sin_nombre_2);}</style><clipPath id="clip-path" transform="translate(38.59 -338.93)"><path class="cls-1" d="M491.8,543.41c-2.38,0-4.14.72-5.26,2.17a8.15,8.15,0,0,0-1.69,5.17V655.52c0,4.83,2.3,7.23,6.95,7.23h21.52a8,8,0,0,0,5.64-1.83,7,7,0,0,0,2-5.4V550.75a5.75,5.75,0,0,0-.8-3,9.72,9.72,0,0,0-1.93-2.3,8.29,8.29,0,0,0-2.43-1.5,6.88,6.88,0,0,0-2.45-.52Zm76.87-.47a7.43,7.43,0,0,0-5.51,2,7.18,7.18,0,0,0-2,5.32V565.5q0,4.05,2,5.92a7.78,7.78,0,0,0,5.51,1.87h45.75q-6.3,7.05-13.24,15.23t-14,16.53q-7,8.38-13.95,16.51T560,636.62a5.92,5.92,0,0,0-1.36,2.55,13.87,13.87,0,0,0-.23,2.54v13a7.92,7.92,0,0,0,.6,3,8.73,8.73,0,0,0,1.71,2.58,9.41,9.41,0,0,0,2.43,1.83,6.08,6.08,0,0,0,2.87.7h82.88a6.38,6.38,0,0,0,3.05-.7,7.69,7.69,0,0,0,2.36-1.88,8.48,8.48,0,0,0,1.5-2.63,8.67,8.67,0,0,0,.52-2.87V639.92c0-2.63-.68-4.55-2-5.78a7.71,7.71,0,0,0-5.41-1.82H602.48l51.79-61.46a4.91,4.91,0,0,0,1-2.27,16.47,16.47,0,0,0,.13-2V550.28a6.6,6.6,0,0,0-2.3-5.51,8.33,8.33,0,0,0-5.31-1.83Zm165.89,87.44a26,26,0,0,1-8.6-6.25,27.57,27.57,0,0,1-5.5-9.35,35.76,35.76,0,0,1,0-23.06,29.7,29.7,0,0,1,5.5-9.59,25.78,25.78,0,0,1,8.6-6.53,25.49,25.49,0,0,1,11.13-2.39,28.55,28.55,0,0,1,11.71,2.39,29.62,29.62,0,0,1,9.39,6.53,30.34,30.34,0,0,1,6.25,9.59,30.54,30.54,0,0,1,0,23.06,28.22,28.22,0,0,1-6.25,9.35,30,30,0,0,1-9.39,6.25,29.52,29.52,0,0,1-11.71,2.31,26.33,26.33,0,0,1-11.13-2.31M722,546.28a60.41,60.41,0,0,0-19.45,13.06,61.74,61.74,0,0,0-13,19.56,61,61,0,0,0-4.8,24.28,62.94,62.94,0,0,0,2.16,16.59A61.64,61.64,0,0,0,693,634.56,60.93,60.93,0,0,0,702.56,647a60.3,60.3,0,0,0,12.36,9.59A61.16,61.16,0,0,0,746,664.92a35.87,35.87,0,0,0,9.25-1.18,45.26,45.26,0,0,0,8.37-3.1,44.21,44.21,0,0,0,7.13-4.37,54.09,54.09,0,0,0,5.79-5l1.22,4.23c.37,1.06.73,2.05,1.08,3a8.1,8.1,0,0,0,1.27,2.3,4.92,4.92,0,0,0,2,1.46,8.38,8.38,0,0,0,3.19.51h18.51a13.7,13.7,0,0,0,2.46-.28,7.38,7.38,0,0,0,4.3-3.62,8.07,8.07,0,0,0,.58-3.05V549.9a7.35,7.35,0,0,0-.58-3,5.89,5.89,0,0,0-1.87-2.34,4.72,4.72,0,0,0-2.43-1.33,13.7,13.7,0,0,0-2.46-.28h-14a13.6,13.6,0,0,0-2.91.24,3.53,3.53,0,0,0-1.74.94,6.75,6.75,0,0,0-1.31,2.16c-.41,1-.93,2.24-1.55,3.81l-2.73,8.55a40.86,40.86,0,0,0-5.93-6.81,35.8,35.8,0,0,0-7.56-5.41,41.63,41.63,0,0,0-9.19-3.57A42.69,42.69,0,0,0,746,541.53a60.78,60.78,0,0,0-24,4.75M902.39,543a29.16,29.16,0,0,0-7,3.79,41.94,41.94,0,0,0-6,5.36c-1.85,2-3.71,4-5.58,6.11a42.88,42.88,0,0,1-1.79-5.08,35.57,35.57,0,0,0-1.74-4.79,12,12,0,0,0-2.4-3.56,5,5,0,0,0-3.75-1.42H860a9,9,0,0,0-2.68.43,7.62,7.62,0,0,0-2.45,1.27,6.29,6.29,0,0,0-1.73,2.16,6.83,6.83,0,0,0-.66,3.11V655.52c0,4.83,2.45,7.23,7.33,7.23h21.15c2.69,0,4.61-.61,5.78-1.83a7.6,7.6,0,0,0,1.72-5.4v-68c1.33-2.14,2.64-4.08,4-5.83a26.92,26.92,0,0,1,4.22-4.51,17.44,17.44,0,0,1,5-2.91,18.61,18.61,0,0,1,6.43-1,22.47,22.47,0,0,1,9.55,1.92,29.89,29.89,0,0,1,8.22,5.87,10.65,10.65,0,0,0,4.22,1q3.76,0,6.31-3.67l8.54-14.56a9.79,9.79,0,0,0,1.6-4.8q0-3.19-4-5.54c-2.75-2-5.31-3.75-7.65-5.26a42.82,42.82,0,0,0-7.11-3.71,40.39,40.39,0,0,0-7.56-2.22,50.28,50.28,0,0,0-9.07-.75,23.93,23.93,0,0,0-8.68,1.47"/></clipPath><linearGradient id="Degradado_sin_nombre_4" x1="416.82" y1="944.76" x2="427.45" y2="944.76" gradientTransform="matrix(0, 8.63, 8.63, 0, -7403.27, -3372.67)" gradientUnits="userSpaceOnUse"><stop offset="0" stop-color="#099ec2"/><stop offset="0.08" stop-color="#099ec2"/><stop offset="0.33" stop-color="#0792bd"/><stop offset="0.79" stop-color="#0272b1"/><stop offset="1" stop-color="#0061ab"/></linearGradient><clipPath id="clip-path-2" transform="translate(38.59 -338.93)"><path class="cls-1" d="M147.54,735.79,70.48,870l135.9-81.47C275.94,830.21,370,839.49,425,834h0L537.85,988.51,460.86,769l-4.48-12.82a283.05,283.05,0,0,1-73.88,19.51c-36.07,4.33-79.76,2-123.61-18.64-28.85-13.57-57.73-35.13-84.53-68Zm17.15-212.61C137.92,547.67,118.6,583.7,118,636.67c-.38,30.59,6.09,56.86,17.57,79.29l29.07-50.66c-9.2-28.57-17.05-77.48,17.84-116,1.5-1.68,3.11-3.33,4.78-5,15.34-14.91,38-26.15,63.31-34.58l-49-11.83h0L136.8,482.31Zm159.73-54c-8.08.12-29,1.16-57.93,7.52a255.81,255.81,0,0,0-48.74,13.93l.35.08-.13,0h.25l53.06,12.81c13.78-3.72,27.91-6.7,41.7-9.12,17.36-3.05,34.23-5.24,49.19-6.76L342,430.24Z"/></clipPath><linearGradient id="Degradado_sin_nombre_2" x1="416.66" y1="925.03" x2="427.29" y2="925.03" gradientTransform="matrix(-22.43, 0, 0, 22.43, 9766.82, -20037.88)" gradientUnits="userSpaceOnUse"><stop offset="0" stop-color="#099ec2"/><stop offset="0.01" stop-color="#099ec2"/><stop offset="0.28" stop-color="#0792bd"/><stop offset="0.78" stop-color="#0272b1"/><stop offset="1" stop-color="#0061ab"/></linearGradient></defs><title>Izartop Logo</title><polygon class="cls-2" points="649.01 383.64 649.01 392.62 630.21 392.62 630.21 442.9 620.23 442.9 620.23 392.62 601.51 392.62 601.51 383.64 649.01 383.64"/><path class="cls-2" d="M637.59,752.21a21.21,21.21,0,0,0,42.42,0,21.21,21.21,0,0,0-42.42,0m52.66,0c0,16.94-13.72,30.06-31.41,30.06s-31.42-13.12-31.42-30.06,13.72-29.88,31.42-29.88,31.41,12.95,31.41,29.88" transform="translate(38.59 -338.93)"/><path class="cls-2" d="M755.34,743.06c0-7.78-5.16-11.51-14.31-11.51h-13.2V755H741c9.15,0,14.31-3.91,14.31-12m9.57-.25c0,13.38-8.55,21.17-23.46,21.17H727.83v17.86h-10V722.57h23.62c14.91,0,23.46,7.37,23.46,20.24" transform="translate(38.59 -338.93)"/><path class="cls-2" d="M797,752.21a21.24,21.24,0,0,0,21.33,21.08A21,21,0,1,0,797,752.21m52.66,0c0,16.94-13.72,30.06-31.41,30.06s-31.41-13.12-31.41-30.06,13.72-29.88,31.41-29.88,31.41,12.95,31.41,29.88" transform="translate(38.59 -338.93)"/><path class="cls-2" d="M915.41,752.72h8.72v21.84a40.19,40.19,0,0,1-23,7.71c-17.54,0-31.16-13.13-31.16-30.06s13.8-29.88,31.74-29.88a35.58,35.58,0,0,1,22.78,8.29L918.79,738a25.72,25.72,0,0,0-17.1-6.77c-12.1,0-21.58,9.22-21.58,21s9.57,21.08,21.68,21.08a27.59,27.59,0,0,0,13.62-4.06Z" transform="translate(38.59 -338.93)"/><path class="cls-2" d="M979.24,755c9.14,0,14.39-3.89,14.39-11.94,0-7.78-5.25-11.51-14.39-11.51H965.18V755Zm13.55,26.84-10.84-18a26.37,26.37,0,0,1-2.71.09H965.18v17.86h-10V722.58h24c15.15,0,23.87,7.36,23.87,20.22,0,9.49-4.4,16.18-12.27,19.23l13.29,19.81Z" transform="translate(38.59 -338.93)"/><path class="cls-2" d="M1067.78,759.57l-11.17-26.33-11.18,26.33Zm3.81,8.89h-29.88L1036,781.84h-10.41l26.16-59.26H1062l25.91,59.26h-10.67Z" transform="translate(38.59 -338.93)"/><polygon class="cls-2" points="1191.11 383.64 1191.02 392.62 1161.31 392.62 1161.31 409.72 1188.22 409.72 1188.22 418.61 1161.31 418.61 1161.31 442.9 1151.32 442.9 1151.32 383.64 1191.11 383.64"/><path class="cls-2" d="M1188.32,781.84h-10V722.58h10Zm8.29-74.08-10.32,8.29h-8.63l9-12.52Z" transform="translate(38.59 -338.93)"/><path class="cls-2" d="M1255.28,759.57l-11.18-26.33-11.17,26.33Zm3.81,8.89h-29.88l-5.68,13.38h-10.41l26.16-59.26h10.24l25.91,59.26h-10.68Z" transform="translate(38.59 -338.93)"/><path class="cls-3" d="M334.48,553c0,1.39,95.29,104.12,95.29,104.12S354.93,627,353.53,627s-58.56,40-58.56,40Z" transform="translate(38.59 -338.93)"/><path d="M986.63,524.81a5.11,5.11,0,0,1,1.92-4.37,22,22,0,0,1,5.5-2.77l21.33-7.43a5.55,5.55,0,0,1,.89-.08h.8q3.48,0,4.66,2a10.59,10.59,0,0,1,1.17,5.3l-.1,25.84h12.88a6.79,6.79,0,0,1,4.88,1.79,7.07,7.07,0,0,1,1.88,5.35V568.6q0,3.95-1.88,5.78a6.7,6.7,0,0,1-4.88,1.83H1022.8l.1,79.3a6.84,6.84,0,0,1-2.07,5.41,8.31,8.31,0,0,1-5.73,1.84H993.86c-4.83,0-7.23-2.42-7.23-7.25l-.1-79.3h-9.68q-7.23,0-7.24-7.61V550.46q0-7.14,7.24-7.14h9.68Z" transform="translate(38.59 -338.93)"/><path d="M1106,603.18a34.07,34.07,0,0,0,1.94,11.6,27.77,27.77,0,0,0,5.44,9.35,25.57,25.57,0,0,0,8.55,6.25,26.87,26.87,0,0,0,11.33,2.31,25.8,25.8,0,0,0,11-2.31,24.78,24.78,0,0,0,8.35-6.25,27.59,27.59,0,0,0,5.27-9.35,37.24,37.24,0,0,0,0-23.06,29.75,29.75,0,0,0-5.27-9.59,24.65,24.65,0,0,0-8.35-6.53,25,25,0,0,0-11-2.4,26,26,0,0,0-11.33,2.4,25.39,25.39,0,0,0-8.55,6.53,29.94,29.94,0,0,0-5.44,9.59,33.93,33.93,0,0,0-1.94,11.46m-34.29,0a62.19,62.19,0,0,1,2.21-16.63,61,61,0,0,1,6.2-14.8,61.66,61.66,0,0,1,9.58-12.41,60.25,60.25,0,0,1,12.46-9.54,62.78,62.78,0,0,1,31.38-8.26,61.24,61.24,0,0,1,43.56,17.8,62.08,62.08,0,0,1,13.15,19.55,63.37,63.37,0,0,1,2.63,40.88,62.39,62.39,0,0,1-6.2,14.79,60.93,60.93,0,0,1-22,22,61.34,61.34,0,0,1-31.11,8.32,63.29,63.29,0,0,1-16.58-2.16,61.55,61.55,0,0,1-14.8-6.16,60.86,60.86,0,0,1-22-22,62.13,62.13,0,0,1-8.41-31.38" transform="translate(38.59 -338.93)"/><path d="M1322.74,603.18a33.05,33.05,0,0,0-2-11.41,29.32,29.32,0,0,0-5.54-9.46,26.65,26.65,0,0,0-8.55-6.39,25.59,25.59,0,0,0-11-2.35,29,29,0,0,0-11.23,2.22,29.77,29.77,0,0,0-9.3,6,30.4,30.4,0,0,0-6.49,9,28.17,28.17,0,0,0-2.77,11v1.41a28.92,28.92,0,0,0,2.36,11.65,29.41,29.41,0,0,0,6.38,9.44,30.8,30.8,0,0,0,9.49,6.35,29,29,0,0,0,11.56,2.35,25.59,25.59,0,0,0,11-2.35,26.82,26.82,0,0,0,8.55-6.35,28.4,28.4,0,0,0,5.54-9.44,34.13,34.13,0,0,0,2-11.65M1235,544.54a5.74,5.74,0,0,1,2.54-1.31,12.56,12.56,0,0,1,2.53-.28h14.19a7,7,0,0,1,3,.55,5.46,5.46,0,0,1,1.92,1.55,10.14,10.14,0,0,1,1.28,2.27c.34.84.67,1.76,1,2.76l3.95,11.38c1.76-2.26,3.52-4.56,5.31-6.91a35.16,35.16,0,0,1,6.34-6.39,32.19,32.19,0,0,1,8.74-4.74,35.74,35.74,0,0,1,12.41-1.88,58.59,58.59,0,0,1,23.72,4.74,56.46,56.46,0,0,1,18.69,13.07,60.17,60.17,0,0,1,12.27,19.54,68.82,68.82,0,0,1,0,48.53A60.08,60.08,0,0,1,1340.54,647a57,57,0,0,1-18.69,13.12,58.12,58.12,0,0,1-23.72,4.78,34.12,34.12,0,0,1-10.53-1.45,30.78,30.78,0,0,1-7.85-3.81,36.51,36.51,0,0,1-6.06-5.17c-1.75-1.88-3.48-3.75-5.17-5.63v43.78a7.11,7.11,0,0,1-1.69,4.8c-1.12,1.31-2.88,2-5.26,2h-21.52a7.09,7.09,0,0,1-2.44-.47,9.42,9.42,0,0,1-2.44-1.31,7.22,7.22,0,0,1-1.89-2.11,5.57,5.57,0,0,1-.74-2.88V549.9a6.16,6.16,0,0,1,.7-3.1,10.92,10.92,0,0,1,1.74-2.26" transform="translate(38.59 -338.93)"/><path class="cls-3" d="M484.85,503.2q0-4,1.69-5.59c1.12-1.1,2.88-1.65,5.26-1.65h21.8a8.1,8.1,0,0,1,5.3,1.65q2,1.63,2,5.59v18.32a6.85,6.85,0,0,1-.51,2.45A10.58,10.58,0,0,1,519,526.5a8.05,8.05,0,0,1-2.31,2,6,6,0,0,1-3,.78H491.8q-7,0-6.95-7.79Z" transform="translate(38.59 -338.93)"/><g class="cls-4"><rect class="cls-5" x="523.44" y="202.6" width="461.66" height="123.39"/></g><g class="cls-6"><rect class="cls-7" x="19.52" y="389.26" width="569.3" height="640.24" transform="translate(-96.73 -264.05) rotate(-11.5)"/></g></svg>